<svg width="189" height="34" viewBox="0 0 189 34" fill="none" xmlns="http://www.w3.org/2000/svg">
<path d="M0.583452 2.27273H8.06925L12.8988 12.3182H13.092L17.9215 2.27273H25.4073L16.3278 19.2244V27H9.663V19.2244L0.583452 2.27273ZM28.5103 27.2898C27.3271 27.2898 26.2807 27.0966 25.3711 26.7102C24.4696 26.3158 23.7612 25.7202 23.2461 24.9233C22.7309 24.1264 22.4734 23.1122 22.4734 21.8807C22.4734 20.8665 22.6464 20.0012 22.9925 19.2848C23.3387 18.5604 23.8216 17.9688 24.4414 17.5099C25.0612 17.0511 25.7816 16.701 26.6026 16.4595C27.4317 16.218 28.3252 16.0611 29.283 15.9886C30.3214 15.9081 31.1545 15.8116 31.7823 15.6989C32.4182 15.5781 32.877 15.4131 33.1587 15.2038C33.4405 14.9865 33.5813 14.7008 33.5813 14.3466V14.2983C33.5813 13.8153 33.3962 13.4451 33.0259 13.1875C32.6557 12.9299 32.1808 12.8011 31.6012 12.8011C30.9653 12.8011 30.4461 12.942 30.0437 13.2237C29.6493 13.4974 29.4118 13.92 29.3313 14.4915H23.1978C23.2783 13.3646 23.6365 12.3262 24.2724 11.3764C24.9163 10.4186 25.854 9.65388 27.0856 9.08239C28.3171 8.50284 29.8545 8.21307 31.6978 8.21307C33.0259 8.21307 34.2172 8.37003 35.2717 8.68395C36.3261 8.98982 37.2236 9.42045 37.9641 9.97585C38.7047 10.5232 39.2681 11.1671 39.6545 11.9077C40.0489 12.6402 40.2461 13.437 40.2461 14.2983V27H34.016V24.392H33.8711C33.5008 25.0843 33.0501 25.6437 32.5188 26.0703C31.9956 26.4969 31.396 26.8068 30.7198 27C30.0517 27.1932 29.3152 27.2898 28.5103 27.2898ZM30.6836 23.0881C31.1907 23.0881 31.6656 22.9834 32.1083 22.7741C32.5591 22.5649 32.9253 22.263 33.207 21.8686C33.4888 21.4742 33.6296 20.9953 33.6296 20.4318V18.8864C33.4525 18.9588 33.2634 19.0272 33.0621 19.0916C32.869 19.156 32.6597 19.2164 32.4343 19.2727C32.217 19.3291 31.9835 19.3814 31.734 19.4297C31.4925 19.478 31.239 19.5223 30.9734 19.5625C30.4582 19.643 30.0356 19.7758 29.7056 19.9609C29.3836 20.138 29.1422 20.3594 28.9812 20.625C28.8282 20.8826 28.7518 21.1723 28.7518 21.4943C28.7518 22.0095 28.9329 22.4039 29.2951 22.6776C29.6573 22.9512 30.1201 23.0881 30.6836 23.0881ZM43.4306 27V8.45454H49.7573V11.9801H49.9505C50.3368 10.821 50.9969 9.90341 51.9306 9.22727C52.8643 8.55114 53.9751 8.21307 55.263 8.21307C56.5669 8.21307 57.6898 8.55919 58.6316 9.25142C59.5733 9.93561 60.1408 10.8452 60.334 11.9801H60.5272C60.8411 10.8452 61.5092 9.93561 62.5314 9.25142C63.5537 8.55919 64.753 8.21307 66.1294 8.21307C67.9083 8.21307 69.3491 8.78456 70.4519 9.92756C71.5627 11.0705 72.1181 12.5919 72.1181 14.4915V27H65.4533V16.1818C65.4533 15.3688 65.248 14.733 64.8375 14.2741C64.427 13.8073 63.8757 13.5739 63.1834 13.5739C62.4992 13.5739 61.9559 13.8073 61.5534 14.2741C61.159 14.733 60.9618 15.3688 60.9618 16.1818V27H54.5868V16.1818C54.5868 15.3688 54.3816 14.733 53.9711 14.2741C53.5605 13.8073 53.0092 13.5739 52.3169 13.5739C51.8581 13.5739 51.4637 13.6785 51.1337 13.8878C50.8037 14.0971 50.5461 14.3989 50.361 14.7933C50.1839 15.1797 50.0953 15.6425 50.0953 16.1818V27H43.4306ZM82.07 2.27273V27H75.4052V2.27273H82.07ZM98.6987 10C98.6343 9.19508 98.3324 8.56723 97.7931 8.11648C97.2619 7.66572 96.4529 7.44034 95.3663 7.44034C94.6741 7.44034 94.1066 7.52486 93.6639 7.69389C93.2292 7.85488 92.9073 8.07623 92.698 8.35795C92.4887 8.63968 92.38 8.96165 92.372 9.32386C92.3559 9.62168 92.4082 9.89133 92.5289 10.1328C92.6577 10.3662 92.859 10.5795 93.1326 10.7727C93.4063 10.9579 93.7565 11.1269 94.1831 11.2798C94.6097 11.4328 95.1168 11.5696 95.7044 11.6903L97.7328 12.125C99.1011 12.4148 100.272 12.7971 101.246 13.272C102.22 13.7469 103.017 14.3063 103.637 14.9503C104.257 15.5862 104.711 16.3026 105.001 17.0994C105.299 17.8963 105.452 18.7656 105.46 19.7074C105.452 21.3333 105.046 22.7098 104.241 23.8366C103.436 24.9635 102.285 25.8208 100.787 26.4084C99.2984 26.996 97.5074 27.2898 95.4146 27.2898C93.2654 27.2898 91.39 26.9718 89.7882 26.3359C88.1944 25.7 86.9548 24.7221 86.0694 23.402C85.1921 22.0739 84.7493 20.3755 84.7413 18.3068H91.1163C91.1565 19.0634 91.3457 19.6993 91.6838 20.2145C92.0218 20.7296 92.4967 21.12 93.1085 21.3857C93.7283 21.6513 94.4648 21.7841 95.318 21.7841C96.0344 21.7841 96.6341 21.6955 97.117 21.5185C97.6 21.3414 97.9662 21.0959 98.2157 20.782C98.4653 20.468 98.594 20.1098 98.6021 19.7074C98.594 19.3291 98.4693 18.9991 98.2278 18.7173C97.9944 18.4276 97.608 18.17 97.0687 17.9446C96.5294 17.7112 95.801 17.4938 94.8833 17.2926L92.4203 16.7614C90.2309 16.2865 88.5043 15.4936 87.2406 14.3828C85.9849 13.264 85.3611 11.7386 85.3691 9.80682C85.3611 8.23722 85.7797 6.86482 86.6248 5.68963C87.478 4.50639 88.6573 3.58475 90.1625 2.92471C91.6757 2.26468 93.4103 1.93466 95.3663 1.93466C97.3625 1.93466 99.0891 2.2687 100.546 2.93679C102.003 3.60488 103.126 4.54664 103.915 5.76207C104.711 6.96946 105.114 8.3821 105.122 10H98.6987ZM108.11 33.9545V8.45454H114.727V11.6903H114.872C115.113 11.0625 115.467 10.487 115.934 9.96378C116.401 9.43253 116.981 9.00994 117.673 8.69602C118.365 8.37405 119.17 8.21307 120.088 8.21307C121.311 8.21307 122.474 8.53906 123.577 9.19105C124.688 9.84304 125.589 10.8693 126.281 12.2699C126.982 13.6705 127.332 15.4896 127.332 17.7273C127.332 19.8684 126.998 21.6432 126.33 23.0518C125.67 24.4605 124.784 25.5109 123.673 26.2031C122.571 26.8954 121.359 27.2415 120.039 27.2415C119.17 27.2415 118.393 27.1006 117.709 26.8189C117.033 26.5291 116.453 26.1387 115.97 25.6477C115.495 25.1487 115.129 24.5852 114.872 23.9574H114.775V33.9545H108.11ZM114.63 17.7273C114.63 18.6288 114.747 19.4096 114.98 20.0696C115.222 20.7216 115.56 21.2287 115.994 21.5909C116.437 21.9451 116.964 22.1222 117.576 22.1222C118.188 22.1222 118.707 21.9491 119.134 21.603C119.568 21.2488 119.898 20.7457 120.124 20.0938C120.357 19.4337 120.474 18.6449 120.474 17.7273C120.474 16.8097 120.357 16.0249 120.124 15.3729C119.898 14.7128 119.568 14.2098 119.134 13.8636C118.707 13.5095 118.188 13.3324 117.576 13.3324C116.964 13.3324 116.437 13.5095 115.994 13.8636C115.56 14.2098 115.222 14.7128 114.98 15.3729C114.747 16.0249 114.63 16.8097 114.63 17.7273ZM130.124 27V8.45454H136.596V11.9801H136.789C137.127 10.6761 137.662 9.7223 138.395 9.11861C139.135 8.51491 140 8.21307 140.99 8.21307C141.28 8.21307 141.566 8.23722 141.848 8.28551C142.137 8.32576 142.415 8.38613 142.681 8.46662V14.1534C142.351 14.0407 141.944 13.9562 141.461 13.8999C140.978 13.8435 140.564 13.8153 140.218 13.8153C139.566 13.8153 138.978 13.9643 138.455 14.2621C137.94 14.5518 137.533 14.9624 137.235 15.4936C136.938 16.0168 136.789 16.6326 136.789 17.3409V27H130.124ZM144.866 27V8.45454H151.531V27H144.866ZM148.199 6.52273C147.297 6.52273 146.524 6.2249 145.88 5.62926C145.236 5.03362 144.914 4.31723 144.914 3.48011C144.914 2.64299 145.236 1.92661 145.88 1.33096C146.524 0.735322 147.297 0.4375 148.199 0.4375C149.108 0.4375 149.881 0.735322 150.517 1.33096C151.161 1.92661 151.483 2.64299 151.483 3.48011C151.483 4.31723 151.161 5.03362 150.517 5.62926C149.881 6.2249 149.108 6.52273 148.199 6.52273ZM161.591 16.5682V27H154.927V8.45454H161.253V11.9801H161.447C161.849 10.8049 162.557 9.88329 163.572 9.2152C164.594 8.54711 165.785 8.21307 167.145 8.21307C168.457 8.21307 169.596 8.51491 170.562 9.11861C171.536 9.71425 172.289 10.5353 172.82 11.5817C173.359 12.6281 173.625 13.8234 173.617 15.1676V27H166.952V16.5682C166.96 15.6506 166.727 14.9302 166.252 14.407C165.785 13.8838 165.133 13.6222 164.296 13.6222C163.749 13.6222 163.27 13.7429 162.859 13.9844C162.457 14.2178 162.147 14.5559 161.93 14.9986C161.712 15.4332 161.599 15.9564 161.591 16.5682ZM187.967 8.45454V13.2841H175.748V8.45454H187.967ZM178.115 4.01136H184.779V21.0355C184.779 21.2931 184.824 21.5104 184.912 21.6875C185.001 21.8565 185.137 21.9853 185.323 22.0739C185.508 22.1544 185.745 22.1946 186.035 22.1946C186.236 22.1946 186.47 22.1705 186.735 22.1222C187.009 22.0739 187.21 22.0336 187.339 22.0014L188.305 26.6861C188.007 26.7746 187.58 26.8833 187.025 27.0121C186.478 27.1409 185.826 27.2254 185.069 27.2656C183.54 27.3461 182.256 27.1892 181.218 26.7947C180.179 26.3923 179.398 25.7604 178.875 24.8991C178.352 24.0379 178.098 22.9593 178.115 21.6634V4.01136Z" fill="#FF4769"/>
</svg>
